<svg width="160" height="54" viewBox="0 0 160 54" fill="none" xmlns="http://www.w3.org/2000/svg">
<path d="M147.107 11.0073C150.73 11.0073 153.529 12.0271 155.417 13.7797C157.3 15.5284 158.334 18.058 158.334 21.1948C158.334 25.4878 156.374 28.538 152.853 30.0492L152.348 30.266L152.612 30.7485L159.157 42.725H152.663L146.606 31.391L146.465 31.1274H140.617V42.725H134.699V11.0073H147.107ZM62.031 11.0073V15.7104H47.2849V24.5063H60.5935V29.2104H47.2849V42.725H41.3679V11.0073H62.031ZM140.617 26.5678H145.813C147.85 26.5678 149.46 26.1506 150.566 25.2319C151.69 24.2982 152.209 22.9189 152.209 21.1948C152.209 19.4643 151.692 18.0497 150.57 17.0785C149.462 16.1188 147.842 15.6626 145.782 15.6625H140.617V26.5678Z" fill="black" stroke="black"/>
<path d="M71.8068 43.2534L79.6402 10.422H91.2759L99.1099 43.2534H92.6352L90.9882 35.9833H79.9284L78.2815 43.2534H71.8068ZM81.3092 29.792H89.5633L85.8809 13.5152H85.0357L81.3092 29.792ZM120.07 10.5072H113.152V43.2254H120.07V10.5072Z" fill="#017EE1"/>
<path fill-rule="evenodd" clip-rule="evenodd" d="M0 53.7883V-5.72205e-06H50.4222V6.02705H6.0366V47.7613H50.4222V53.7883H0Z" fill="black"/>
</svg>
